<svg id="Layer_1" data-name="Layer 1" xmlns="http://www.w3.org/2000/svg" xmlns:xlink="http://www.w3.org/1999/xlink" viewBox="0 0 432 64.49"><defs><style>.cls-1{fill:none;clip-rule:evenodd;}.cls-2,.cls-3{fill:#fff;}.cls-2{stroke:#fff;stroke-miterlimit:10;stroke-width:1.66px;}.cls-4,.cls-5{fill:#8bc53f;}.cls-5{fill-rule:evenodd;}.cls-6{clip-path:url(#clip-path);}</style><clipPath id="clip-path" transform="translate(-4.52 -3.74)"><path class="cls-1" d="M65.79,36a29,29,0,1,1-29-29A29,29,0,0,1,65.79,36Z"/></clipPath></defs><title>GSatTrack_Logo_Color_DarkBG</title><path class="cls-2" d="M132.28,36.46a20.5,20.5,0,0,1-3,11.06q-6.21,10.73-19.13,10.73A25.26,25.26,0,0,1,98,55.37a21.88,21.88,0,0,1-8.8-8.71,23.83,23.83,0,0,1-3.18-12,22.34,22.34,0,0,1,5.84-15.37q6.93-7.78,18-7.78a25.16,25.16,0,0,1,19.22,8.38l-6,5.9a17.54,17.54,0,0,0-13.17-6A15.3,15.3,0,0,0,99.05,24a14.16,14.16,0,0,0-4.57,10.73,14.58,14.58,0,0,0,4.7,11.07,15.82,15.82,0,0,0,11.28,4.37q8.69,0,12.26-7.66H109.83V34.58h22.39Z" transform="translate(-4.52 -3.74)"/><path class="cls-3" d="M168.74,21.43H156.65c-1.51,0-2.74.55-2.74,2,0,4,17.92,9.27,17.92,20.53,0,6.18-1.58,14.42-17,14.42H142V47.25h12.43c2.74,0,4.46-.83,4.46-2.61,0-5.08-17.24-9.21-17.24-20.74,0-10,7.08-13.6,14.56-13.6h12.5Z" transform="translate(-4.52 -3.74)"/><path class="cls-3" d="M207.27,58.37V43c0-5.91-2.75-8.79-7.77-8.79A7.43,7.43,0,0,0,192,41.48a7.25,7.25,0,0,0,7.28,7.69,14.88,14.88,0,0,0,5.29-1v9.06c-2.06,1.44-4.4,1.92-7.49,1.92-7,0-16.06-6-16.06-17.44,0-10,7.69-17.57,18.33-17.57,10.37,0,18.95,5.62,18.95,16.2v18Z" transform="translate(-4.52 -3.74)"/><path class="cls-3" d="M247.23,24.72v10H239.4v8.92c0,3.85,1.38,4.54,5.63,4.67.76,0,1.58-.07,2.34-.13V58.37h-6.18c-8.38,0-12.36-5.63-12.36-11.95V16.76h10.64v8Z" transform="translate(-4.52 -3.74)"/><path class="cls-4" d="M274.56,17.4v41h-5.17v-41H254.47V12.6h34.87v4.8Z" transform="translate(-4.52 -3.74)"/><path class="cls-4" d="M299.32,26.31H304L303.55,30l.1.1q2.78-4.53,9.18-4.52,8.87,0,8.86,9.12l0,2.21H317l.1-.8c.06-.85.1-1.43.1-1.72q0-4.92-5.37-4.92-7.85,0-7.84,9.69V58.37h-4.7Z" transform="translate(-4.52 -3.74)"/><path class="cls-4" d="M336.26,35.3H331.6q0-5.59,2.53-7.53c1.69-1.28,5-1.93,9.91-1.93q8,0,10.83,2.37t2.81,9V58.37H353l.37-3.45-.1,0q-2.68,4-10.9,4-12.14,0-12.14-9.76,0-5.8,2.72-8t9.82-2.22q8.46,0,10.13,3.32l.1,0V38.25q0-5.49-1.51-7.13t-6.61-1.62q-8.64,0-8.64,4.86C336.23,34.52,336.24,34.83,336.26,35.3Zm7.54,7.21q-5.4,0-7,1.14t-1.63,4.89c0,2.6.54,4.31,1.61,5.15S340,55,343.3,55q9.93,0,9.93-6c0-2.52-.65-4.22-1.93-5.09S347.51,42.51,343.8,42.51Z" transform="translate(-4.52 -3.74)"/><path class="cls-4" d="M393.55,46.8h4.69l0,1.74q0,10.31-13.48,10.3-8.66,0-11.44-3.25t-2.78-13.42q0-9.51,2.83-12.92t10.78-3.41q7.81,0,10.67,2.3t2.85,8.64H393v-.84c0-2.49-.61-4.14-1.84-5s-3.68-1.24-7.35-1.24-5.8.79-6.8,2.35-1.51,5.07-1.51,10.53.57,8.71,1.72,10.16S381.08,55,385.3,55q5.37,0,6.81-1.43T393.55,46.8Z" transform="translate(-4.52 -3.74)"/><path class="cls-4" d="M414.66,12.6V39.19h2.14l11.34-12.88H434L420.33,41l16.19,17.34h-6.34L416.57,42.84h-1.91V58.37H410V12.6Z" transform="translate(-4.52 -3.74)"/><path class="cls-5" d="M36.77,3.75A32.25,32.25,0,1,0,69,36,32.24,32.24,0,0,0,36.77,3.75Zm0,61.26a29,29,0,1,1,29-29A29,29,0,0,1,36.77,65Z" transform="translate(-4.52 -3.74)"/><g class="cls-6"><path class="cls-5" d="M36.77,3.74A32.25,32.25,0,1,1,4.52,36,32.31,32.31,0,0,1,36.77,3.74Zm-1,2.52A50.28,50.28,0,0,0,29,20.4h6.76V6.26ZM28.53,22.18A54.65,54.65,0,0,0,26.77,35.1h9V22.18Zm-1.76,14.7A54.68,54.68,0,0,0,28.56,49.8h7.23V36.88Zm2.3,14.7a50.77,50.77,0,0,0,6.72,14.1V51.58Zm4.49,14.53A53.56,53.56,0,0,1,27,51.58H20A48.87,48.87,0,0,0,33.48,66.1h.08ZM26.47,49.8a56.33,56.33,0,0,1-1.71-12.92H15.67A30.09,30.09,0,0,0,19,49.8ZM24.76,35.1a56.77,56.77,0,0,1,1.67-12.92h-7.2A30.94,30.94,0,0,0,15.69,35.1Zm2.15-14.7A53,53,0,0,1,33.52,5.87h-.06A51.53,51.53,0,0,0,20.21,20.4Zm3.42,45.19a47.66,47.66,0,0,1-12.52-14h-7a30.45,30.45,0,0,0,19.51,14ZM16.87,49.8a30.54,30.54,0,0,1-3.24-12.92H6.49A30.1,30.1,0,0,0,9.82,49.8ZM13.65,35.1A31.71,31.71,0,0,1,17.1,22.18H9.82A29.93,29.93,0,0,0,6.49,35.1Zm4.41-14.7a50.65,50.65,0,0,1,12.35-14,30.43,30.43,0,0,0-19.59,14ZM37.74,6.26A50.56,50.56,0,0,1,44.5,20.4H37.74V6.26ZM45,22.18A54.14,54.14,0,0,1,46.76,35.1h-9V22.18Zm1.76,14.7A54.68,54.68,0,0,1,45,49.8H37.74V36.88Zm-2.3,14.7a50.77,50.77,0,0,1-6.72,14.1V51.58ZM40,66.11a53.56,53.56,0,0,0,6.61-14.53h7A48.87,48.87,0,0,1,40.05,66.1H40Zm7.1-16.31a56.88,56.88,0,0,0,1.7-12.92h9.09A30.09,30.09,0,0,1,54.53,49.8Zm1.7-14.7A56.77,56.77,0,0,0,47.1,22.18h7.2A30.94,30.94,0,0,1,57.84,35.1ZM46.62,20.4A53,53,0,0,0,40,5.87h.06A51.73,51.73,0,0,1,53.33,20.4ZM43.2,65.59a47.84,47.84,0,0,0,12.53-14h7a30.43,30.43,0,0,1-19.51,14ZM56.66,49.8A30.54,30.54,0,0,0,59.9,36.88H67A30,30,0,0,1,63.71,49.8Zm3.23-14.7a31.73,31.73,0,0,0-3.46-12.92h7.28A29.93,29.93,0,0,1,67,35.1ZM55.47,20.4a50.65,50.65,0,0,0-12.35-14,30.4,30.4,0,0,1,19.59,14Z" transform="translate(-4.52 -3.74)"/><path class="cls-3" d="M55.05,47.78,47.71,23.56a2.69,2.69,0,1,0-4.45-2,1.55,1.55,0,0,0,0,.31L27.05,33.64a2.67,2.67,0,0,0-1.37-.39H25.6l-4.72-10a2.62,2.62,0,0,0,.61-1.68,2.69,2.69,0,1,0-2.69,2.69H19l4.69,10a2.69,2.69,0,1,0,4.73,1.74,2.48,2.48,0,0,0-.06-.54L44.4,23.73a2.71,2.71,0,0,0,1.23.47L53,48.42a2.66,2.66,0,0,0-.94,2,2.7,2.7,0,1,0,3-2.66Z" transform="translate(-4.52 -3.74)"/></g></svg>